<svg width="18" height="31" viewBox="0 0 18 31" fill="none" xmlns="http://www.w3.org/2000/svg">
<rect x="5.75" y="8.75" width="5.5" height="3.5" fill="white" stroke="#0E0E2C" stroke-width="1.5"/>
<path d="M15.8591 20.9521C15.8591 22.0636 15.9771 23.1462 16.0828 24.1155C16.113 24.3929 16.1422 24.6609 16.1674 24.9177C16.2851 26.1193 16.3116 27.0569 16.0804 27.8006C15.8702 28.4768 15.4282 29.0481 14.4183 29.4756C13.3614 29.9231 11.6998 30.2021 9.10911 30.2021C6.0096 30.2021 4.02228 29.922 2.76531 29.462C1.55022 29.0173 1.08481 28.4343 0.887839 27.8006C0.664533 27.0822 0.738901 26.1693 0.921129 24.956C0.949419 24.7676 0.980092 24.5731 1.01162 24.373C1.17399 23.3432 1.35913 22.1687 1.35913 20.9521C1.35913 19.7355 1.17399 18.5611 1.01163 17.5312C0.980093 17.3312 0.94942 17.1367 0.921129 16.9483C0.738902 15.735 0.664534 14.8221 0.88784 14.1037C1.08481 13.47 1.55022 12.887 2.76531 12.4423C4.02228 11.9823 6.0096 11.7021 9.10911 11.7021C11.6998 11.7021 13.3614 11.9812 14.4183 12.4287C15.4282 12.8562 15.8702 13.4275 16.0804 14.1037C16.3116 14.8474 16.2851 15.785 16.1674 16.9866C16.1422 17.2434 16.113 17.5114 16.0828 17.7888C15.9771 18.7581 15.8591 19.8407 15.8591 20.9521Z" fill="white" stroke="#0E0E2C" stroke-width="1.5"/>
<path d="M5.109 20.79C3.1888 22.3181 1.74866 20.79 1.74866 20.79C1.01284 26.1011 0.754768 26.9023 1.26846 27.921C1.98366 29.3392 4.14879 29.9584 8.94939 29.9584C8.94939 29.9584 14.7099 30.4677 15.67 27.921C16.6301 25.3742 15.1899 21.2994 15.1899 21.2994C15.1899 21.2994 14.2299 18.7526 11.8297 20.79C9.42944 22.8275 7.02919 19.262 5.109 20.79Z" fill="#9ABFB8" stroke="#0E0E2C" stroke-width="1.5" stroke-linejoin="round"/>
<path d="M7 6.16669V8.66669H10V6.16669C10.8028 5.48008 11 4.66663 11 3.66669C11 2.66675 10 1.66675 8.5 1.66675C7 1.66675 6 2.66675 6 3.66669C6 4.66663 6.12126 5.43031 7 6.16669Z" fill="white" stroke="#0E0E2C" stroke-width="1.5"/>
</svg>
